<svg width="18" height="18" viewBox="0 0 18 18" fill="none" xmlns="http://www.w3.org/2000/svg">
<path d="M13 1H5C2.79086 1 1 2.79086 1 5V13C1 15.2091 2.79086 17 5 17H13C15.2091 17 17 15.2091 17 13V5C17 2.79086 15.2091 1 13 1Z" stroke="black" stroke-width="2" stroke-linecap="round" stroke-linejoin="round"/>
<path d="M12.1994 8.496C12.2981 9.16179 12.1844 9.84177 11.8744 10.4392C11.5644 11.0366 11.0739 11.5211 10.4727 11.8237C9.87146 12.1263 9.19013 12.2317 8.5256 12.1247C7.86108 12.0178 7.24718 11.7041 6.77125 11.2281C6.29531 10.7522 5.98156 10.1383 5.87463 9.47377C5.7677 8.80924 5.87303 8.12791 6.17564 7.5267C6.47825 6.92548 6.96272 6.43499 7.56016 6.12499C8.1576 5.81499 8.83758 5.70127 9.50338 5.8C10.1825 5.9007 10.8113 6.21717 11.2967 6.70264C11.7822 7.18812 12.0987 7.81686 12.1994 8.496Z" stroke="black" stroke-width="2" stroke-linecap="round" stroke-linejoin="round"/>
<path d="M13.4004 4.59998H13.4084" stroke="black" stroke-width="2" stroke-linecap="round" stroke-linejoin="round"/>
</svg>
